<?xml version="1.0" encoding="iso-8859-1"?>
<!-- Generator: Adobe Illustrator 19.0.0, SVG Export Plug-In . SVG Version: 6.00 Build 0)  -->
<svg version="1.1" id="Layer_1" xmlns="http://www.w3.org/2000/svg" xmlns:xlink="http://www.w3.org/1999/xlink" x="0px" y="0px"
	 viewBox="0 0 512 512" style="enable-background:new 0 0 512 512;" xml:space="preserve">
<polygon style="fill:#FFD159;" points="334.769,320.703 334.769,399.473 413.538,376.967 413.538,343.209 "/>
<polygon style="fill:#FFE08F;" points="368.527,320.703 368.527,399.473 98.462,376.967 98.462,343.209 "/>
<polygon style="fill:#FFEAB2;" points="413.538,67.516 413.538,343.209 368.527,343.209 312.264,205.363 368.527,67.516 "/>
<polygon style="fill:#FFD159;" points="354.462,388.22 354.462,466.989 433.231,444.484 433.231,410.725 "/>
<polygon style="fill:#FFE08F;" points="388.22,388.22 388.22,466.989 78.769,444.484 78.769,410.725 "/>
<path style="fill:#FFF3D4;" d="M323.517,67.516h-45.011L188.484,0H98.462v343.209h270.066v-56.264
	C368.527,299.379,323.517,67.516,323.517,67.516z"/>
<g>
	<path style="fill:#FFE08F;" d="M188.484,0v286.945c0,12.434-10.071,22.505-22.505,22.505c-12.434,0-22.505-10.071-22.505-22.505V0
		H188.484z"/>
	<path style="fill:#FFE08F;" d="M278.505,67.516v219.429c0,12.434-10.071,22.505-22.505,22.505
		c-12.434,0-22.505-10.071-22.505-22.505V33.758L278.505,67.516z"/>
	<path style="fill:#FFE08F;" d="M368.527,67.516v219.429c0,12.434-10.071,22.505-22.505,22.505
		c-12.434,0-22.505-10.071-22.505-22.505V67.516H368.527z"/>
	<path style="fill:#FFE08F;" d="M433.231,444.484h-33.758V512h33.758c18.646,0,33.758-15.112,33.758-33.758
		S451.877,444.484,433.231,444.484z"/>
</g>
<path style="fill:#FFF3D4;" d="M399.473,444.484H78.769c-18.646,0-33.758,15.112-33.758,33.758S60.123,512,78.769,512h320.703
	c18.646,0,33.758-15.112,33.758-33.758S418.118,444.484,399.473,444.484z"/>
<path style="fill:#FFE08F;" d="M433.231,376.967h-33.758v33.758h33.758c9.317,0,16.879-7.562,16.879-16.879
	C450.11,384.529,442.548,376.967,433.231,376.967z"/>
<path style="fill:#FFF3D4;" d="M399.473,376.967H78.769c-9.317,0-16.879,7.562-16.879,16.879c0,9.317,7.562,16.879,16.879,16.879
	h320.703c9.317,0,16.879-7.562,16.879-16.879C416.352,384.529,408.79,376.967,399.473,376.967z"/>
<path style="fill:#FFD159;" d="M416.352,351.648H95.648c-4.662,0-8.44-3.779-8.44-8.44s3.778-8.44,8.44-8.44h320.703
	c4.662,0,8.44,3.779,8.44,8.44S421.014,351.648,416.352,351.648z"/>
<g>
</g>
<g>
</g>
<g>
</g>
<g>
</g>
<g>
</g>
<g>
</g>
<g>
</g>
<g>
</g>
<g>
</g>
<g>
</g>
<g>
</g>
<g>
</g>
<g>
</g>
<g>
</g>
<g>
</g>
</svg>
